<svg width="320" height="51" viewBox="0 0 320 51" fill="none" xmlns="http://www.w3.org/2000/svg">
<rect width="320" height="51" fill="white"/>
<path d="M288.448 40.0454L292.878 12.0988H302.705L301.966 16.927H301.569C302.553 15.1472 303.879 13.8029 305.545 12.8941C307.211 11.9474 309.142 11.474 311.339 11.474C313.346 11.474 315.05 11.8906 316.451 12.7237C317.89 13.5567 318.893 14.8632 319.461 16.643C320.067 18.4228 320.162 20.7138 319.745 23.516L317.133 40.0454H307.022L309.578 23.6864C309.729 22.7019 309.729 21.8877 309.578 21.2439C309.464 20.5623 309.161 20.0511 308.669 19.7103C308.215 19.3695 307.552 19.1991 306.681 19.1991C305.659 19.1991 304.731 19.4452 303.898 19.9375C303.102 20.3919 302.459 21.0735 301.966 21.9824C301.474 22.8533 301.114 23.9136 300.887 25.1633L298.558 40.0454H288.448Z" fill="black"/>
<path d="M272.397 40.6702C269.33 40.6702 266.717 40.1401 264.559 39.0798C262.438 37.9816 260.81 36.4479 259.674 34.4788C258.576 32.5097 258.027 30.2187 258.027 27.6058C258.027 24.9171 258.481 22.5693 259.39 20.5623C260.336 18.5553 261.586 16.8702 263.139 15.5069C264.729 14.1437 266.509 13.1402 268.478 12.4964C270.447 11.8148 272.473 11.474 274.556 11.474C277.585 11.474 280.16 12.0231 282.281 13.1213C284.439 14.1816 286.087 15.6963 287.223 17.6654C288.359 19.5967 288.927 21.8688 288.927 24.4817C288.927 27.2082 288.453 29.5749 287.507 31.5819C286.598 33.5889 285.348 35.274 283.758 36.6373C282.205 38.0005 280.444 39.023 278.475 39.7046C276.506 40.3484 274.48 40.6702 272.397 40.6702ZM272.568 33.2292C273.855 33.2292 274.954 32.8505 275.862 32.0931C276.809 31.2979 277.529 30.2187 278.021 28.8554C278.513 27.4922 278.759 25.9396 278.759 24.1977C278.759 22.4936 278.362 21.1871 277.566 20.2783C276.809 19.3695 275.73 18.9151 274.329 18.9151C273.079 18.9151 271.981 19.2937 271.034 20.0511C270.125 20.8085 269.425 21.8688 268.933 23.232C268.44 24.5953 268.194 26.1668 268.194 27.9466C268.194 29.6506 268.573 30.9571 269.33 31.8659C270.125 32.7747 271.205 33.2292 272.568 33.2292Z" fill="black"/>
<path d="M241.068 40.6702C238 40.6702 235.387 40.1401 233.229 39.0798C231.108 37.9816 229.48 36.4479 228.344 34.4788C227.246 32.5097 226.697 30.2187 226.697 27.6058C226.697 24.9171 227.151 22.5693 228.06 20.5623C229.007 18.5553 230.256 16.8702 231.809 15.5069C233.399 14.1437 235.179 13.1402 237.148 12.4964C239.117 11.8148 241.143 11.474 243.226 11.474C246.256 11.474 248.831 12.0231 250.951 13.1213C253.11 14.1816 254.757 15.6963 255.893 17.6654C257.029 19.5967 257.597 21.8688 257.597 24.4817C257.597 27.2082 257.124 29.5749 256.177 31.5819C255.268 33.5889 254.018 35.274 252.428 36.6373C250.875 38.0005 249.115 39.023 247.145 39.7046C245.176 40.3484 243.15 40.6702 241.068 40.6702ZM241.238 33.2292C242.526 33.2292 243.624 32.8505 244.533 32.0931C245.479 31.2979 246.199 30.2187 246.691 28.8554C247.183 27.4922 247.429 25.9396 247.429 24.1977C247.429 22.4936 247.032 21.1871 246.237 20.2783C245.479 19.3695 244.4 18.9151 242.999 18.9151C241.749 18.9151 240.651 19.2937 239.704 20.0511C238.796 20.8085 238.095 21.8688 237.603 23.232C237.11 24.5953 236.864 26.1668 236.864 27.9466C236.864 29.6506 237.243 30.9571 238 31.8659C238.796 32.7747 239.875 33.2292 241.238 33.2292Z" fill="black"/>
<path d="M191.757 50.2698L197.835 12.0988H207.661L206.98 16.5294H206.696C207.377 15.4691 208.192 14.5602 209.138 13.8029C210.123 13.0077 211.183 12.4207 212.319 12.042C213.493 11.6633 214.724 11.474 216.011 11.474C218.094 11.474 219.912 11.9663 221.464 12.9509C223.017 13.9354 224.21 15.3365 225.043 17.1542C225.914 18.9719 226.349 21.1303 226.349 23.6296C226.349 26.8863 225.762 29.8021 224.588 32.3771C223.414 34.9522 221.767 36.9781 219.647 38.4549C217.526 39.9318 215.046 40.6702 212.206 40.6702C210.199 40.6702 208.438 40.2347 206.923 39.3638C205.408 38.455 204.329 37.1485 203.685 35.4444L204.196 35.5012L201.868 50.2698H191.757ZM210.047 33.2292C211.335 33.2292 212.433 32.8505 213.342 32.0931C214.25 31.2979 214.951 30.2187 215.443 28.8554C215.936 27.4922 216.182 25.9396 216.182 24.1977C216.182 22.4936 215.784 21.1871 214.989 20.2783C214.231 19.3695 213.171 18.9151 211.808 18.9151C210.52 18.9151 209.422 19.3127 208.513 20.1079C207.605 20.8653 206.885 21.9256 206.355 23.2888C205.863 24.6521 205.617 26.2047 205.617 27.9466C205.617 29.6506 206.014 30.9571 206.809 31.8659C207.605 32.7747 208.684 33.2292 210.047 33.2292Z" fill="black"/>
<path d="M180.334 40.6702C177.873 40.6702 175.506 40.4052 173.234 39.875C171 39.307 169.106 38.4928 167.554 37.4325L170.337 31.0139C171.284 31.5819 172.306 32.0931 173.404 32.5475C174.541 32.9641 175.695 33.286 176.869 33.5132C178.081 33.7404 179.217 33.854 180.277 33.854C181.754 33.854 182.834 33.6268 183.515 33.1724C184.197 32.7179 184.538 32.1499 184.538 31.4683C184.538 30.9382 184.367 30.5405 184.026 30.2755C183.686 30.0104 183.08 29.8021 182.209 29.6506L177.153 28.7986C174.806 28.4199 172.988 27.5868 171.7 26.2993C170.451 24.9739 169.826 23.3456 169.826 21.4144C169.826 19.6724 170.337 18.0441 171.36 16.5294C172.42 15.0147 173.972 13.8029 176.017 12.8941C178.1 11.9474 180.694 11.474 183.799 11.474C184.935 11.474 186.128 11.5876 187.378 11.8148C188.665 12.0042 189.915 12.3071 191.127 12.7237C192.338 13.1402 193.437 13.6893 194.421 14.3709L191.695 20.6759C190.407 19.8428 189.025 19.2369 187.548 18.8583C186.071 18.4417 184.632 18.2334 183.231 18.2334C181.679 18.2334 180.543 18.4796 179.823 18.9719C179.104 19.4263 178.744 20.0322 178.744 20.7895C178.744 21.2061 178.876 21.5658 179.141 21.8688C179.444 22.1717 179.937 22.38 180.618 22.4936L185.674 23.2888C188.287 23.7432 190.237 24.6142 191.524 25.9017C192.812 27.1892 193.456 28.7986 193.456 30.7299C193.456 32.8884 192.906 34.706 191.808 36.1829C190.748 37.6597 189.233 38.7768 187.264 39.5342C185.295 40.2915 182.985 40.6702 180.334 40.6702Z" fill="black"/>
<path d="M146.554 40.0454L150.984 12.0988H160.811L159.732 18.9719H159.22C159.864 16.7755 161.038 15.0147 162.742 13.6893C164.484 12.3639 166.586 11.6255 169.047 11.474L171.774 11.3036L171.319 19.8239L165.014 20.4487C163.689 20.5623 162.61 20.8463 161.776 21.3008C160.981 21.7552 160.356 22.4179 159.902 23.2888C159.485 24.1219 159.164 25.2201 158.936 26.5833L156.835 40.0454H146.554Z" fill="black"/>
<path d="M133.622 40.6702C130.63 40.6702 128.017 40.1401 125.783 39.0798C123.549 37.9816 121.807 36.4479 120.557 34.4788C119.308 32.5097 118.683 30.2187 118.683 27.6058C118.683 24.387 119.383 21.5658 120.785 19.1423C122.224 16.7187 124.155 14.8443 126.578 13.5189C129.04 12.1556 131.766 11.474 134.758 11.474C137.939 11.474 140.495 12.1556 142.426 13.5189C144.395 14.8443 145.758 16.6619 146.516 18.9719C147.273 21.2818 147.463 23.8379 147.084 26.6401L146.857 28.117H126.919L127.601 23.3456H140.211L139.302 24.084C139.491 22.9101 139.435 21.8688 139.132 20.9599C138.866 20.0511 138.355 19.3505 137.598 18.8583C136.878 18.3281 135.894 18.063 134.644 18.063C133.432 18.063 132.41 18.3281 131.577 18.8583C130.744 19.3884 130.062 20.1079 129.532 21.0167C129.04 21.9256 128.718 22.948 128.566 24.084L128.169 26.2993C127.942 27.7762 128.036 29.0448 128.453 30.1051C128.907 31.1275 129.665 31.9038 130.725 32.4339C131.823 32.9641 133.167 33.2292 134.758 33.2292C136.31 33.2292 137.825 33.0209 139.302 32.6043C140.817 32.1499 142.123 31.5251 143.221 30.7299L145.323 37.3189C143.922 38.3792 142.199 39.2123 140.154 39.8182C138.147 40.3862 135.97 40.6702 133.622 40.6702Z" fill="black"/>
<path d="M104.248 40.6702C102.241 40.6702 100.481 40.2347 98.9659 39.3638C97.4512 38.4549 96.3719 37.1485 95.7282 35.4444H96.0122L95.2738 40.0454H85.447L91.8089 0H101.92L99.2499 16.5294H98.6819C99.4014 15.4691 100.234 14.5602 101.181 13.8029C102.166 13.0077 103.226 12.4207 104.362 12.042C105.536 11.6633 106.767 11.474 108.054 11.474C110.137 11.474 111.955 11.9663 113.507 12.9508C115.06 13.9354 116.253 15.3365 117.086 17.1542C117.957 18.9719 118.392 21.1303 118.392 23.6296C118.392 26.8863 117.805 29.8021 116.631 32.3771C115.457 34.9522 113.81 36.9781 111.69 38.4549C109.569 39.9318 107.089 40.6702 104.248 40.6702ZM102.09 33.2292C103.378 33.2292 104.476 32.8505 105.385 32.0931C106.293 31.2979 106.994 30.2187 107.486 28.8554C107.978 27.4922 108.225 25.9396 108.225 24.1976C108.225 22.4936 107.827 21.1871 107.032 20.2783C106.274 19.3695 105.214 18.9151 103.851 18.9151C102.563 18.9151 101.465 19.3127 100.556 20.1079C99.6475 20.8653 98.928 21.9256 98.3979 23.2888C97.9056 24.6521 97.6595 26.2046 97.6595 27.9466C97.6595 29.6506 98.0571 30.9571 98.8523 31.8659C99.6475 32.7747 100.727 33.2292 102.09 33.2292Z" fill="black"/>
<path d="M71.8647 40.6702C69.8577 40.6702 68.0968 40.2347 66.5821 39.3638C65.0674 38.4549 63.9882 37.1485 63.3444 35.4444H63.6284L62.89 40.0454H53.0633L59.4251 0H69.5358L66.8661 16.5294H66.2981C67.0176 15.4691 67.8507 14.5602 68.7974 13.8029C69.782 13.0077 70.8423 12.4207 71.9783 12.042C73.1522 11.6633 74.3829 11.474 75.6704 11.474C77.7532 11.474 79.5708 11.9663 81.1234 12.9508C82.676 13.9354 83.8689 15.3365 84.702 17.1542C85.5729 18.9719 86.0084 21.1303 86.0084 23.6296C86.0084 26.8863 85.4214 29.8021 84.2475 32.3771C83.0736 34.9522 81.4264 36.9781 79.3058 38.4549C77.1852 39.9318 74.7048 40.6702 71.8647 40.6702ZM69.7062 33.2292C70.9937 33.2292 72.0919 32.8505 73.0008 32.0931C73.9096 31.2979 74.6101 30.2187 75.1024 28.8554C75.5947 27.4922 75.8409 25.9396 75.8409 24.1976C75.8409 22.4936 75.4432 21.1871 74.648 20.2783C73.8907 19.3695 72.8304 18.9151 71.4671 18.9151C70.1796 18.9151 69.0814 19.3127 68.1726 20.1079C67.2638 20.8653 66.5443 21.9256 66.0141 23.2888C65.5218 24.6521 65.2757 26.2046 65.2757 27.9466C65.2757 29.6506 65.6733 30.9571 66.4685 31.8659C67.2637 32.7747 68.343 33.2292 69.7062 33.2292Z" fill="black"/>
<path d="M31.786 40.6702C29.8169 40.6702 28.1128 40.2537 26.6739 39.4206C25.2727 38.5875 24.2692 37.281 23.6634 35.5012C23.0953 33.7214 23.0196 31.4304 23.4362 28.6282L26.049 12.0988H36.1598L33.6037 28.4578C33.4522 29.4045 33.4333 30.2186 33.5469 30.9003C33.6984 31.5819 34.0013 32.0931 34.4557 32.4339C34.9102 32.7747 35.5539 32.9451 36.387 32.9451C37.3716 32.9451 38.2425 32.7179 38.9999 32.2635C39.7951 31.7712 40.4389 31.0707 40.9312 30.1618C41.4613 29.253 41.8211 28.1738 42.0104 26.9241L44.3393 12.0988H54.45L50.0195 40.0454H40.1359L40.8744 35.1604H41.3288C40.3821 36.9402 39.0756 38.3035 37.4094 39.2502C35.7432 40.1969 33.8688 40.6702 31.786 40.6702Z" fill="black"/>
<path d="M0 40.0454L4.43055 12.0988H14.2573L13.1781 18.9719H12.6668C13.3106 16.7755 14.4845 15.0147 16.1886 13.6893C17.9305 12.3639 20.0322 11.6255 22.4936 11.474L25.2201 11.3036L24.7657 19.8239L18.4606 20.4487C17.1353 20.5623 16.056 20.8463 15.2229 21.3008C14.4277 21.7552 13.8029 22.4179 13.3485 23.2888C12.9319 24.1219 12.61 25.2201 12.3828 26.5833L10.2812 40.0454H0Z" fill="black"/>
</svg>
